<?xml version="1.0" standalone="no"?>
<!DOCTYPE svg PUBLIC "-//W3C//DTD SVG 20010904//EN"
 "http://www.w3.org/TR/2001/REC-SVG-20010904/DTD/svg10.dtd">
<svg version="1.0" xmlns="http://www.w3.org/2000/svg"
 width="171.000000pt" height="171.000000pt" viewBox="0 0 171.000000 171.000000"
 preserveAspectRatio="xMidYMid meet">
<metadata>
Created by potrace 1.14, written by Peter Selinger 2001-2017
</metadata>
<g transform="translate(0.000000,171.000000) scale(0.100000,-0.100000)"
fill="#000000" stroke="none">
<path d="M710 1360 c-14 -3 -39 -27 -62 -60 -20 -30 -53 -71 -73 -91 -35 -34
-41 -37 -118 -42 -149 -11 -172 -22 -210 -100 -32 -66 -37 -89 -24 -113 6 -10
11 -33 12 -50 2 -18 5 -37 9 -42 3 -6 2 -13 -2 -16 -10 -6 -9 -36 1 -53 4 -6
2 -15 -4 -19 -8 -4 -7 -9 2 -15 12 -7 12 -9 0 -9 -11 0 -11 -3 -1 -15 7 -8 8
-15 3 -15 -11 0 -11 -36 0 -46 4 -4 2 -13 -4 -21 -9 -10 -8 -13 0 -13 7 0 9
-5 5 -12 -12 -20 -12 -48 0 -41 8 5 8 2 1 -8 -6 -8 -10 -21 -9 -29 1 -8 3 -26
4 -40 1 -22 2 -23 9 -6 7 19 8 19 13 -2 3 -11 1 -23 -4 -24 -12 -4 40 -58 56
-58 6 0 -2 11 -19 25 -16 13 -25 24 -19 25 13 0 50 -34 56 -52 7 -19 219 -18
244 2 10 9 15 10 10 3 -4 -8 -1 -13 9 -13 9 0 14 4 11 8 -3 5 1 9 9 9 8 0 15
-4 15 -9 0 -4 12 -8 28 -8 21 0 24 2 12 10 -13 8 -12 10 3 10 9 0 17 -4 17
-10 0 -5 12 -10 28 -9 l27 1 -25 8 c-24 8 -24 8 8 10 36 3 76 3 95 1 8 -1 7
-4 -3 -11 -12 -8 -9 -10 13 -10 15 0 40 -6 55 -14 64 -32 221 -25 281 13 26
17 54 24 46 12 -6 -10 51 -8 61 2 11 11 26 9 19 -3 -4 -6 7 -10 25 -10 17 0
29 3 27 8 -3 4 11 7 29 8 22 0 43 9 57 23 21 21 22 27 21 259 -1 130 -3 260
-6 288 -6 62 -32 118 -63 138 -23 15 -113 31 -100 17 7 -7 13 -8 49 -10 33 -1
79 -42 93 -82 9 -26 9 -30 0 -15 -34 53 -52 67 -103 82 -30 8 -54 19 -54 23 0
12 -114 10 -129 -3 -12 -9 -13 -8 -6 4 7 13 6 13 -7 2 -13 -10 -17 -10 -22 3
-3 8 -11 14 -18 13 -7 -2 -13 4 -14 12 0 8 -2 22 -2 30 -3 24 -85 145 -102
149 -26 6 -234 7 -260 1z m-300 -375 c-7 -9 -15 -13 -17 -11 -7 7 7 26 19 26
6 0 6 -6 -2 -15z"/>
<path d="M775 410 c4 -6 11 -8 16 -5 14 9 11 15 -7 15 -8 0 -12 -5 -9 -10z"/>
</g>
</svg>
